<svg xmlns="http://www.w3.org/2000/svg" preserveAspectRatio="none" style="display: block;" version="1.1" viewBox="0 0 2048 2048">
<path d="M 1039.04 1754.29 C 1013.07 1754.6 988.731 1755.34 962.876 1752.35 C 695.492 1721.43 520.764 1470.08 463.401 1225.61 C 422.695 1052.12 426.855 880.228 543.894 733.492 C 560.409 712.788 600.968 674.467 620.645 655.238 L 732.164 544.887 C 787.947 489.935 801.128 488.651 831.728 414.905 C 860.934 344.516 932.712 296.134 1008.53 292.934 C 1090.74 276.683 1186.85 344.198 1218.56 418.821 C 1228.05 441.143 1234.72 462.647 1251.58 481.071 C 1329.27 565.945 1431.51 649.157 1502.62 735.52 C 1674.88 956.227 1610.86 1224.63 1482.11 1446.63 C 1376.92 1628.01 1245.15 1730.14 1039.04 1754.29 z M 838.104 501.713 C 954.319 460.908 1098.47 460.773 1213.84 504.75 L 1213.84 504.75 L 1213.84 504.75 C 1191.52 473.422 1191.95 469.838 1176.71 435.923 C 1122.13 314.418 958.491 302.628 884.574 411.906 C 865.135 444.101 865.372 467.277 838.104 501.713 z M 994.526 516.998 C 896.196 526.035 790.798 550.083 719.749 622.048 L 614.615 726.376 C 509.681 830.796 472.411 957.609 488.023 1105.46 C 516.393 1371.18 685.357 1680.37 978.539 1708.63 C 995.563 1710.27 1042.28 1706.69 1052.24 1709.06 C 1088.62 1699.74 1121.69 1695.57 1157.18 1682.99 C 1318.62 1625.76 1446.68 1455.06 1507.21 1297.61 C 1591.07 1083.92 1594.71 889.805 1425.63 721.33 L 1367.2 662.873 C 1349.21 644.655 1301.41 594.324 1281.66 583.235 C 1195.88 535.066 1091.97 512.894 994.526 516.998 z" fill="currentColor" transform="translate(0,0)"></path>
<path d="M 808.922 875.63 C 770.619 870.106 768.535 896.611 759.612 920.934 C 752.386 940.629 713.918 935.399 718.166 904.537 C 723.899 862.884 749.598 834.467 792.107 829.377 C 877.865 822.571 914.977 941.221 851.954 930.411 C 831.275 926.864 850.106 888.674 808.922 875.63 z" fill="currentColor" transform="translate(0,0)"></path>
<path d="M 1253.24 875.63 C 1214.41 868.003 1216.54 904.628 1205.99 922.928 C 1201.32 934.089 1182.75 933.926 1175.65 926.82 C 1143.95 895.094 1194.35 834.671 1243.61 829.377 C 1292.12 825.38 1331.1 867.296 1328.9 915.291 C 1322.53 926.64 1314.36 933.657 1300.43 930.514 C 1275.96 924.46 1295.75 884.774 1253.24 875.63 z" fill="currentColor" transform="translate(0,0)"></path>
<path d="M 1173.59 1274.04 C 1282.85 1238.46 1370.81 1139.03 1395.21 1027.52 C 1400.22 1004.62 1407.29 1001.17 1430.06 999.941 C 1457.17 998.476 1472.83 962.989 1454.76 942.132 C 1439.44 922.766 1417.01 936.022 1398.9 922.564 C 1385.91 912.913 1391.02 886.774 1416.77 884.477 C 1535.07 879.115 1537.28 1029.94 1438.17 1043.25 C 1404.91 1160.07 1336.24 1252.84 1222.79 1302.39 C 1266.21 1340.8 1299.69 1378.87 1323.5 1432.96 C 1350.17 1493.52 1303.83 1507.78 1284.85 1458.43 C 1195.43 1225.92 855.217 1223.35 762.398 1458.58 C 743.117 1507.44 693.065 1499.45 726.375 1426.14 C 747.787 1379.01 783.286 1332.35 825.855 1302.39 C 790.019 1286 771.903 1272.93 741.047 1249.25 C 673.803 1193.83 637.422 1125.73 616.795 1043.25 C 610.495 1041.41 604.206 1039.15 597.916 1037.19 C 531.416 1016.41 523.122 922.933 586.276 892.671 C 658.543 857.159 679.071 936.825 625.604 929.941 C 581.999 924.326 573.891 990.095 618.012 996.783 C 643.568 1000.66 653.445 990.931 659.55 1025.09 C 682.381 1152.82 761.571 1226.23 874.592 1274.04 C 967.12 1223.1 1080.61 1226.68 1173.59 1274.04 z" fill="currentColor" transform="translate(0,0)"></path>
<path d="M 917.975 1087.75 C 903.446 1076.35 881.767 1057.61 907.61 1038.26 C 935.754 1021.33 988.035 1119.23 1090.69 1057.45 C 1101.39 1051.01 1111.21 1041.57 1122.21 1035.81 L 1123.42 1035.18 C 1146.18 1031.56 1159.64 1054.95 1147.8 1069.72 C 1093.97 1136.88 985.673 1134.5 917.975 1087.75 z" fill="currentColor" transform="translate(0,0)"></path>
</svg>